HIERARCHY
ROOT Hips
{
	OFFSET 0.000000 0.000000 0.000000
	CHANNELS 6 Xposition Yposition Zposition Xrotation Yrotation Zrotation
	JOINT LeftUpLeg_virtual
	{
		OFFSET 0.000000 0.000000 0.000000
		CHANNELS 3 Xrotation Yrotation Zrotation
		JOINT LeftUpLeg
		{
			OFFSET 10.205400 -3.823500 0.155100
			CHANNELS 3 Xrotation Yrotation Zrotation
			JOINT LeftLeg
			{
				OFFSET 0.708757 -12.982077 0.567790
				CHANNELS 3 Xrotation Yrotation Zrotation
				JOINT LeftFoot
				{
					OFFSET -0.708756 -10.717838 -2.184338
					CHANNELS 3 Xrotation Yrotation Zrotation
					JOINT LeftToeBase
					{
						OFFSET 0.108149 -7.191104 7.560241
						CHANNELS 3 Xrotation Yrotation Zrotation
						JOINT LeftToe_End
						{
							OFFSET 0.070230 0.081724 4.490308
							CHANNELS 3 Xrotation Yrotation Zrotation
							End Site
							{
								OFFSET 0 0 0
							}
						}
					}
				}
			}
		}
	}
	JOINT RightUpLeg_virtual
	{
		OFFSET 0.000000 0.000000 0.000000
		CHANNELS 3 Xrotation Yrotation Zrotation
		JOINT RightUpLeg
		{
			OFFSET -10.205400 -3.823500 0.005500
			CHANNELS 3 Xrotation Yrotation Zrotation
			JOINT RightLeg
			{
				OFFSET -0.708756 -12.982134 0.610632
				CHANNELS 3 Xrotation Yrotation Zrotation
				JOINT RightFoot
				{
					OFFSET 0.708754 -10.717769 -1.945823
					CHANNELS 3 Xrotation Yrotation Zrotation
					JOINT RightToeBase
					{
						OFFSET -0.108140 -7.191069 7.372968
						CHANNELS 3 Xrotation Yrotation Zrotation
						JOINT RightToe_End
						{
							OFFSET -0.070227 0.081735 4.479403
							CHANNELS 3 Xrotation Yrotation Zrotation
							End Site
							{
								OFFSET 0 0 0
							}
						}
					}
				}
			}
		}
	}
	JOINT Spine_virtual
	{
		OFFSET 0.000000 0.000000 0.000000
		CHANNELS 3 Xrotation Yrotation Zrotation
		JOINT Spine
		{
			OFFSET 0.000000 6.876099 0.125700
			CHANNELS 3 Xrotation Yrotation Zrotation
			JOINT Spine1
			{
				OFFSET 0.000000 5.730043 0.104720
				CHANNELS 3 Xrotation Yrotation Zrotation
				JOINT Spine1_split
				{
					OFFSET 0.000000 5.730043 0.104720
					CHANNELS 3 Xrotation Yrotation Zrotation
					JOINT Spine2
					{
						OFFSET 0.000000 5.730043 0.104720
						CHANNELS 3 Xrotation Yrotation Zrotation
						JOINT Neck_virtual
						{
							OFFSET 0.000000 0.000000 0.000000
							CHANNELS 3 Xrotation Yrotation Zrotation
							JOINT Neck
							{
								OFFSET 0.000000 10.314075 0.188496
								CHANNELS 3 Xrotation Yrotation Zrotation
								JOINT Head
								{
									OFFSET 0.000000 7.643700 -2.377400
									CHANNELS 3 Xrotation Yrotation Zrotation
									JOINT HeadTop_End
									{
										OFFSET 0.000000 43.788605 -13.619600
										CHANNELS 3 Xrotation Yrotation Zrotation
										End Site
										{
											OFFSET 0 0 0
										}
									}
								}
							}
						}
						JOINT LeftShoulder_virtual
						{
							OFFSET 0.000000 0.000000 0.000000
							CHANNELS 3 Xrotation Yrotation Zrotation
							JOINT LeftShoulder
							{
								OFFSET 2.196100 4.412489 0.087492
								CHANNELS 3 Xrotation Yrotation Zrotation
								JOINT LeftShoulder_split
								{
									OFFSET 2.196100 4.412489 0.087492
									CHANNELS 3 Xrotation Yrotation Zrotation
									JOINT LeftArm
									{
										OFFSET 8.771219 -2.981674 -0.026999
										CHANNELS 3 Xrotation Yrotation Zrotation
										JOINT LeftForeArm
										{
											OFFSET 8.512804 0.000000 -0.000000
											CHANNELS 3 Xrotation Yrotation Zrotation
											JOINT LeftHand
											{
												OFFSET 18.484802 0.000000 -0.000000
												CHANNELS 3 Xrotation Yrotation Zrotation
												End Site
												{
													OFFSET 0 0 0
												}
											}
										}
									}
								}
							}
						}
						JOINT RightShoulder_virtual
						{
							OFFSET 0.000000 0.000000 0.000000
							CHANNELS 3 Xrotation Yrotation Zrotation
							JOINT RightShoulder
							{
								OFFSET -2.196100 4.412496 0.070690
								CHANNELS 3 Xrotation Yrotation Zrotation
								JOINT RightShoulder_split
								{
									OFFSET -2.196100 4.412496 0.070690
									CHANNELS 3 Xrotation Yrotation Zrotation
									JOINT RightArm
									{
										OFFSET -8.771282 -2.981682 -0.094208
										CHANNELS 3 Xrotation Yrotation Zrotation
										JOINT RightForeArm
										{
											OFFSET -8.494598 0.000000 0.000000
											CHANNELS 3 Xrotation Yrotation Zrotation
											JOINT RightHand
											{
												OFFSET -18.483803 0.000000 0.000001
												CHANNELS 3 Xrotation Yrotation Zrotation
												End Site
												{
													OFFSET 0 0 0
												}
											}
										}
									}
								}
							}
						}
					}
				}
			}
		}
	}
}
MOTION
Frames: 6
Frame Time: 0.03333333
4.376466 33.467815 -1.200920 0.000000 0.000000 0.000000 -0.953642 -20.816065 -1.525568 -3.496254 5.084473 -2.359680 17.218197 8.681882 0.665171 -16.483207 19.709052 -0.080696 -1.645731 0.200105 -1.447185 0.000000 0.000000 0.000000 -0.016034 -20.867416 -1.589052 -1.564763 -7.962705 -14.934384 11.373576 7.259668 6.119941 -15.403963 -6.323091 10.870845 -6.309978 0.130084 0.752021 0.000000 0.000000 0.000000 -0.270597 -20.842356 -2.426242 3.729532 1.218831 -1.651066 0.547576 -0.050678 0.126103 1.117089 0.158908 0.233611 0.000000 0.000000 0.000000 1.411194 0.389873 -0.339593 1.198624 -1.041872 2.280491 13.436067 10.145397 5.771643 0.000000 0.000000 0.000000 0.891654 0.454500 -0.169603 2.250263 -2.963361 -11.621633 -0.331512 -0.991309 -1.987266 -7.113426 -18.982983 -56.070406 0.387157 -14.052100 0.399498 0.000000 0.000000 0.000000 0.956527 0.420718 -0.179826 2.423040 -2.565621 16.866590 -0.714816 2.921102 -2.861216 7.211002 2.695878 65.490538 1.746976 20.422686 1.490422 0.000000 0.000000 0.000000 
4.635333 33.460945 -1.063837 0.000000 0.000000 0.000000 -0.894787 -21.826964 -1.713289 -3.522944 5.315847 -2.563072 17.123421 8.659915 0.680551 -16.560782 20.412989 0.283379 -1.691847 0.211329 -1.391862 0.000000 0.000000 0.000000 -0.006644 -21.802929 -1.776267 -1.766116 -7.958620 -14.855952 11.266462 7.480707 6.096380 -15.614099 -6.358320 11.132816 -6.102074 0.097626 0.644691 0.000000 0.000000 0.000000 -0.260370 -21.751794 -2.625757 3.479300 0.733034 -1.772580 0.489457 -0.140231 0.105163 1.173164 0.188830 0.227378 0.000000 0.000000 0.000000 1.380383 0.292791 -0.361011 1.195993 -1.145847 2.390246 13.720974 11.063379 6.096131 0.000000 0.000000 0.000000 0.844355 0.372266 -0.186520 2.198557 -3.180544 -11.494549 -0.421351 -0.934875 -1.998385 -7.400110 -20.634396 -56.344136 0.398059 -14.577620 0.416602 0.000000 0.000000 0.000000 0.920696 0.331846 -0.231432 2.486101 -3.124167 17.199811 -0.756030 2.842309 -2.913170 6.822693 3.343674 66.036605 1.769436 20.936172 1.495903 0.000000 0.000000 0.000000 
4.874755 33.459236 -0.939003 0.000000 0.000000 0.000000 -0.812351 -22.785909 -1.900171 -3.575231 5.572739 -2.703255 17.020637 8.656415 0.714383 -16.596771 21.072173 0.640674 -1.756592 0.222531 -1.341980 0.000000 0.000000 0.000000 0.010494 -22.694700 -1.967124 -1.972618 -7.986844 -14.713607 11.116611 7.565011 6.052981 -15.767014 -6.391454 11.296818 -5.841139 0.067305 0.532325 0.000000 0.000000 0.000000 -0.221379 -22.630780 -2.812718 3.252599 0.220167 -1.929060 0.432844 -0.224309 0.068198 1.238996 0.237143 0.222680 0.000000 0.000000 0.000000 1.345319 0.197551 -0.394029 1.201313 -1.247036 2.503822 14.003362 11.906019 6.512602 0.000000 0.000000 0.000000 0.803103 0.296026 -0.211952 2.134060 -3.448315 -11.296067 -0.503307 -0.881702 -2.001522 -7.548310 -22.379226 -56.637025 0.430444 -15.459215 0.446289 0.000000 0.000000 0.000000 0.899135 0.246505 -0.298604 2.549588 -3.712217 17.577716 -0.815511 2.730180 -2.928459 6.308260 4.090061 66.510456 1.798639 21.457657 1.499469 0.000000 0.000000 0.000000 
5.088840 33.464039 -0.826664 0.000000 0.000000 0.000000 -0.686838 -23.642587 -2.070630 -3.673397 5.823026 -2.793007 16.908748 8.657453 0.763741 -16.555089 21.663571 0.979981 -1.851068 0.233806 -1.298059 0.000000 0.000000 0.000000 0.076723 -23.504173 -2.143281 -2.152422 -8.007973 -14.536864 10.855310 7.523768 5.980493 -15.793383 -6.412413 11.440545 -5.625264 0.037597 0.431537 0.000000 0.000000 0.000000 -0.131522 -23.434183 -2.972652 3.037919 -0.316526 -2.140016 0.374574 -0.305368 0.010759 1.272122 0.293991 0.240581 0.000000 0.000000 0.000000 1.300105 0.102750 -0.443982 1.212977 -1.346754 2.643826 14.297047 12.660925 7.014175 0.000000 0.000000 0.000000 0.763196 0.224669 -0.250878 2.056845 -3.758713 -11.015599 -0.571476 -0.827877 -1.986426 -7.539780 -24.182386 -56.977158 0.492311 -16.757171 0.486645 0.000000 0.000000 0.000000 0.885692 0.163359 -0.385485 2.616445 -4.330303 17.985398 -0.889019 2.581482 -2.914545 5.740953 4.898157 66.893807 1.829813 21.956295 1.510905 0.000000 0.000000 0.000000 
5.276137 33.475262 -0.722279 0.000000 0.000000 0.000000 -0.502324 -24.362819 -2.218636 -3.843712 6.040633 -2.830280 16.784445 8.650201 0.824377 -16.428478 22.169848 1.281919 -1.940481 0.245699 -1.267958 0.000000 0.000000 0.000000 0.229668 -24.219533 -2.290665 -2.271181 -7.984898 -14.322170 10.433039 7.361026 5.867904 -15.698076 -6.422488 11.590530 -5.472596 0.008904 0.357133 0.000000 0.000000 0.000000 0.029344 -24.136997 -3.102310 2.824878 -0.869775 -2.421416 0.311828 -0.389303 -0.065336 1.299801 0.354332 0.291063 0.000000 0.000000 0.000000 1.244701 0.006456 -0.511252 1.210598 -1.446653 2.828014 14.602950 13.317198 7.592442 0.000000 0.000000 0.000000 0.721772 0.152990 -0.304434 1.969389 -4.103307 -10.653630 -0.626495 -0.758844 -1.974674 -7.406971 -25.974038 -57.380658 0.573990 -18.410152 0.523531 0.000000 0.000000 0.000000 0.872153 0.077555 -0.488865 2.689650 -4.969049 18.404056 -0.953223 2.406748 -2.885612 5.206270 5.718207 67.200367 1.862741 22.451617 1.533442 0.000000 0.000000 0.000000 
5.435111 33.491394 -0.623611 0.000000 0.000000 0.000000 -0.245685 -24.945152 -2.344718 -4.100970 6.214565 -2.808028 16.647966 8.622696 0.893966 -16.210578 22.588808 1.511660 -1.981116 0.259210 -1.249784 0.000000 0.000000 0.000000 0.471111 -24.817719 -2.413514 -2.319290 -7.896873 -14.068982 9.876728 7.094409 5.720601 -15.535725 -6.412677 11.749115 -5.346097 -0.016274 0.319291 0.000000 0.000000 0.000000 0.268234 -24.733227 -3.206977 2.616795 -1.425725 -2.779555 0.242720 -0.481580 -0.154419 1.302896 0.404384 0.341862 0.000000 0.000000 0.000000 1.181585 -0.093958 -0.589763 1.191996 -1.544162 3.066751 14.917191 13.859218 8.231699 0.000000 0.000000 0.000000 0.678144 0.073818 -0.369982 1.875379 -4.475172 -10.233707 -0.680911 -0.655525 -1.970951 -7.166955 -27.683783 -57.835474 0.653244 -20.276878 0.545515 0.000000 0.000000 0.000000 0.853951 -0.016740 -0.602486 2.770483 -5.608739 18.803442 -0.993734 2.236874 -2.844257 4.784747 6.503063 67.452442 1.899768 22.976985 1.564597 0.000000 0.000000 0.000000 
